<?xml version="1.0" encoding="UTF-8"?>
<svg id="_レイヤー_2" data-name="レイヤー_2" xmlns="http://www.w3.org/2000/svg" viewBox="0 0 397.87 55.66">
  <defs>
    <style>
      .cls-1 {
        fill: #231815;
      }
    </style>
  </defs>
  <g id="_レイヤー_1-2" data-name="レイヤー_1">
    <g>
      <polygon class="cls-1" points="69.7 27.32 72.66 27.32 67.83 18.78 66.34 21.36 69.7 27.32"/>
      <path class="cls-1" d="M112,14.12L77.85,0l19.49,34.1c1.59,2.85,2.75,4.39,3.4,5.1v.11h-22.18v-.11c0-.71-.49-2.36-1.98-4.94l-2.47-4.37h-2.96l5.27,9.31v.11h-21.58v-.11c.66-.71,1.76-2.25,3.4-5.1l9.17-16.05,3.85-6.73L46.01.88v.11c-1.21,1.15-2.42,3.46-2.42,7.74v22.73c0,4.28,1.21,6.59,2.42,7.74v.11h-22.74v-.11c.55-1.15,1.1-3.46,1.1-7.74v-10.08h-2.75v10.08c0,4.28.55,6.59,1.1,7.74v.11H0l37.42,15.47h22.73v-.11s-.04-.1-.06-.14l.61.25h22.74v-.11c-.85-.81-1.68-2.2-2.11-4.42l10.95,4.53h21.58v-.11l-.57-1.01,2.71,1.12h22.18v-.11c-.64-.69-1.76-2.18-3.28-4.9l12.12,5.01h22.74v-.03h0v-.03h0v-.03h0v-.03c-.07-.14-.14-.31-.21-.49-.07-.18-.13-.38-.2-.61-.06-.22-.13-.47-.19-.73-.04-.17-.07-.36-.11-.55l4.89,2.02c.53.29,1.15.53,1.87.73.72.2,1.54.35,2.47.46.93.1,1.98.16,3.16.16.76,0,1.49-.02,2.18-.06.69-.04,1.35-.09,1.98-.16.62-.07,1.21-.15,1.76-.24.55-.09,1.06-.19,1.54-.3.48-.11.91-.22,1.31-.33.4-.11.76-.23,1.07-.35s.6-.23.83-.34c.24-.11.43-.21.58-.31h0v-.03h0v-.03h0v-.03h0v-.03c-.14-.08-.28-.19-.41-.31-.13-.12-.24-.27-.35-.42-.11-.16-.21-.32-.3-.5-.09-.18-.18-.36-.25-.55-.08-.19-.15-.38-.21-.57-.06-.19-.12-.38-.17-.56-.05-.18-.09-.36-.13-.52-.04-.16-.07-.32-.1-.46l-.1-.56-.1-.56-.1-.56-.1-.56-.1-.56-.1-.56-.1-.56-.1-.56c-.1-.56-.22-1.09-.36-1.61-.02-.07-.05-.14-.07-.21l29.9,12.36h.11l6.51-11.38,25.41,10.5h37.94l.86-7.9,15.13,6.25c6.81,1.65,14.17,2.31,20.38,2.31,8.66,0,15.26-2.84,17.16-9.11l20.43,8.45h25.15v-.11c-1.48-1.15-2.97-3.46-2.97-7.74v-15.42l12.19,5.04h.11l.05-20.21L360.46.88l-.05,20.21h-.11l-11.64-19.55h-.55v29.93c0,4.28,1.48,6.59,2.97,7.74v.11h-25.15v-.11c1.48-1.15,2.97-3.46,2.97-7.74V1.54h-.55l-11.7,19.55h-.11v-12.69s-14.21-5.87-14.21-5.87l1.38,15.05h-.11c-7.85-11.15-19.16-16.36-22.62-16.36-1.1,0-1.37.27-1.37.66,0,3.57,26.46,10.82,26.46,25.04,0,9.06-7.41,13.07-17.73,13.07-6.21,0-13.56-.66-20.38-2.31l-.43-17.79h.11c7.85,13.18,19.38,19.27,23.61,19.27.88,0,1.04-.38,1.04-.71,0-2.69-25.31-12.74-25.31-26.03,0-1.84.33-3.49.99-4.93,0,0,0,0,0,0l-15.99-6.61,1.81,16.64h-.11l-17.02-15.98h-.99v18.28l8.73-9.55h.11v19.66h-.11l-8.73-9.55v18.28h.99l17.02-15.98h.11l-1.81,16.64h-37.94v-.11c1.2-1.15,2.41-3.46,2.41-7.74V8.73c0-3.47-.29-3.25-.29-3.25l-11.14-4.61v.11c-.66.71-1.82,2.19-3.41,5.1l-19.49,34.1h-.11l-17.41-30.46-16.83-6.96c2.81,1.37,4.83,3.71,4.83,7.76,0,9.4-13.5,10.08-20.37,10.63v.3c3.96-.22,7.14-.44,11.26-.05,6.43.6,8.24,3.79,9.06,8.23l.82,4.45c.22,1.1.77,3.24,1.92,3.9v.11c-1.21.77-5.16,2.09-11.26,2.09-9.45,0-10.49-3.46-11.09-8.24l-1.31-10.76h-.39v10.27c0,4.28.55,6.59,1.1,7.74v.11h-22.74v-.11c1.21-1.15,2.42-3.46,2.42-7.74V14.12Z"/>
      <path class="cls-1" d="M181.28.88v.11c0,.71.44,2.25,1.98,4.94l8.65,15.29,1.49-2.58-9.41-16.64-2.72-1.12Z"/>
      <path class="cls-1" d="M133.42,11.15c0-4.78-.77-9.61-2.2-9.61v19c1.48,0,2.2-4.67,2.2-9.39Z"/>
      <path class="cls-1" d="M22.73.88v.11c-.55,1.15-1.1,3.46-1.1,7.74v10.07h2.75v-10.07c0-4.29-.55-6.59-1.1-7.74v-.11h0v.11s.04.1.06.14l-.61-.25Z"/>
    </g>
  </g>
</svg>